<mxfile host="65bd71144e">
    <diagram id="Q_4FaoU9CjPV6kuCC8ad" name="Page-1">
        <mxGraphModel dx="556" dy="1419" grid="1" gridSize="10" guides="1" tooltips="1" connect="1" arrows="1" fold="1" page="1" pageScale="1" pageWidth="850" pageHeight="1100" math="0" shadow="0">
            <root>
                <mxCell id="0"/>
                <mxCell id="1" parent="0"/>
                <mxCell id="2" value="Admin dashboard" style="rounded=0;whiteSpace=wrap;html=1;" vertex="1" parent="1">
                    <mxGeometry x="120" y="80" width="120" height="60" as="geometry"/>
                </mxCell>
                <mxCell id="3" style="edgeStyle=none;html=1;exitX=1;exitY=0.5;exitDx=0;exitDy=0;" edge="1" parent="1" source="4" target="6">
                    <mxGeometry relative="1" as="geometry"/>
                </mxCell>
                <mxCell id="4" value="Signup" style="rounded=0;whiteSpace=wrap;html=1;" vertex="1" parent="1">
                    <mxGeometry x="120" y="240" width="120" height="60" as="geometry"/>
                </mxCell>
                <mxCell id="5" value="" style="edgeStyle=none;html=1;" edge="1" parent="1" source="6" target="12">
                    <mxGeometry relative="1" as="geometry"/>
                </mxCell>
                <mxCell id="6" value="takes user to settings" style="rounded=0;whiteSpace=wrap;html=1;" vertex="1" parent="1">
                    <mxGeometry x="290" y="240" width="120" height="60" as="geometry"/>
                </mxCell>
                <mxCell id="7" value="Signup url&lt;br&gt;URL/Community/UID" style="rounded=0;whiteSpace=wrap;html=1;" vertex="1" parent="1">
                    <mxGeometry x="330" y="80" width="120" height="60" as="geometry"/>
                </mxCell>
                <mxCell id="8" value="" style="group" vertex="1" connectable="0" parent="1">
                    <mxGeometry x="630" y="-220" width="270" height="300" as="geometry"/>
                </mxCell>
                <mxCell id="9" value="" style="rounded=0;whiteSpace=wrap;html=1;" vertex="1" parent="8">
                    <mxGeometry width="270" height="300" as="geometry"/>
                </mxCell>
                <mxCell id="10" value="&lt;h1&gt;Signup Process:&lt;/h1&gt;&lt;p&gt;&lt;span style=&quot;text-align: center;&quot;&gt;manually add SuperAdmin&lt;/span&gt;&lt;br style=&quot;text-align: center;&quot;&gt;&lt;span style=&quot;text-align: center;&quot;&gt;SuperAdmin adds admin to dashboard&lt;/span&gt;&lt;br style=&quot;text-align: center;&quot;&gt;&lt;span style=&quot;text-align: center;&quot;&gt;[sign up process for admin]&lt;/span&gt;&lt;br style=&quot;text-align: center;&quot;&gt;&lt;span style=&quot;text-align: center;&quot;&gt;Admin send community URL to user&lt;br&gt;&lt;/span&gt;siteURL/invite/userEmail/CommunityID&lt;br style=&quot;text-align: center;&quot;&gt;&lt;span style=&quot;text-align: center;&quot;&gt;URL takes user to signup page&lt;/span&gt;&lt;br style=&quot;text-align: center;&quot;&gt;&lt;span style=&quot;text-align: center;&quot;&gt;Auto assigns user to community&lt;br&gt;takes user to Settings&lt;br&gt;user completes profile&lt;br&gt;Valid all user fields filled out before saving profile&lt;br&gt;&lt;br&gt;&lt;br&gt;&lt;/span&gt;&lt;/p&gt;&lt;p&gt;&lt;span style=&quot;background-color: initial; text-align: center;&quot;&gt;&amp;nbsp;&lt;/span&gt;&lt;/p&gt;" style="text;html=1;strokeColor=none;fillColor=none;spacing=5;spacingTop=-20;whiteSpace=wrap;overflow=hidden;rounded=0;movable=1;resizable=1;rotatable=1;deletable=1;editable=1;connectable=1;" vertex="1" parent="8">
                    <mxGeometry width="270" height="300" as="geometry"/>
                </mxCell>
                <mxCell id="11" value="" style="edgeStyle=none;html=1;" edge="1" parent="1" source="12" target="13">
                    <mxGeometry relative="1" as="geometry"/>
                </mxCell>
                <mxCell id="12" value="user fills out fields" style="whiteSpace=wrap;html=1;rounded=0;" vertex="1" parent="1">
                    <mxGeometry x="480" y="240" width="120" height="60" as="geometry"/>
                </mxCell>
                <mxCell id="13" value="users home/dash page" style="whiteSpace=wrap;html=1;rounded=0;" vertex="1" parent="1">
                    <mxGeometry x="660" y="240" width="120" height="60" as="geometry"/>
                </mxCell>
                <mxCell id="14" value="" style="rounded=0;whiteSpace=wrap;html=1;" vertex="1" parent="1">
                    <mxGeometry x="1030" y="-315" width="400" height="470" as="geometry"/>
                </mxCell>
                <mxCell id="15" value="&amp;nbsp; &amp;nbsp; &amp;nbsp; &amp;nbsp; &amp;nbsp; &amp;nbsp; &amp;nbsp; &amp;nbsp; &amp;nbsp; User&lt;br&gt;&lt;span style=&quot;white-space: pre;&quot;&gt;&#9;&lt;span style=&quot;white-space: pre;&quot;&gt;&#9;&lt;/span&gt;&lt;/span&gt;(onclick to &lt;span style=&quot;white-space: pre;&quot;&gt;&#9;&lt;/span&gt;&lt;span style=&quot;white-space: pre;&quot;&gt;&#9;&lt;/span&gt;&lt;span style=&quot;white-space: pre;&quot;&gt;&#9;&lt;/span&gt;settings)&amp;nbsp;" style="rounded=1;whiteSpace=wrap;html=1;" vertex="1" parent="1">
                    <mxGeometry x="1060" y="-285" width="190" height="100" as="geometry"/>
                </mxCell>
                <mxCell id="16" value="" style="ellipse;whiteSpace=wrap;html=1;aspect=fixed;" vertex="1" parent="1">
                    <mxGeometry x="1070" y="-275" width="80" height="80" as="geometry"/>
                </mxCell>
                <mxCell id="17" value="Goal page&lt;br&gt;(tractate nav button)&lt;br&gt;" style="rounded=1;whiteSpace=wrap;html=1;" vertex="1" parent="1">
                    <mxGeometry x="1060" y="-165" width="190" height="60" as="geometry"/>
                </mxCell>
                <mxCell id="18" value="Community page&lt;br&gt;" style="rounded=1;whiteSpace=wrap;html=1;" vertex="1" parent="1">
                    <mxGeometry x="1060" y="-95" width="190" height="60" as="geometry"/>
                </mxCell>
                <mxCell id="19" value="community settings/dashboard&lt;br&gt;(Admin only)" style="rounded=1;whiteSpace=wrap;html=1;" vertex="1" parent="1">
                    <mxGeometry x="1060" y="-25" width="190" height="60" as="geometry"/>
                </mxCell>
                <mxCell id="20" value="" style="rounded=0;whiteSpace=wrap;html=1;" vertex="1" parent="1">
                    <mxGeometry x="1490" y="-315" width="410" height="480" as="geometry"/>
                </mxCell>
                <mxCell id="21" value="Profile" style="text;html=1;align=center;verticalAlign=middle;resizable=0;points=[];autosize=1;strokeColor=none;fillColor=none;" vertex="1" parent="1">
                    <mxGeometry x="1180" y="-355" width="60" height="30" as="geometry"/>
                </mxCell>
                <mxCell id="22" value="Goal page" style="text;html=1;strokeColor=none;fillColor=none;align=center;verticalAlign=middle;whiteSpace=wrap;rounded=0;" vertex="1" parent="1">
                    <mxGeometry x="1660" y="-365" width="60" height="30" as="geometry"/>
                </mxCell>
                <mxCell id="23" value="User progress&lt;br&gt;(tractate selected, prog bar)" style="rounded=1;whiteSpace=wrap;html=1;" vertex="1" parent="1">
                    <mxGeometry x="1510" y="-295" width="360" height="60" as="geometry"/>
                </mxCell>
                <mxCell id="24" value="select goal" style="rounded=1;whiteSpace=wrap;html=1;" vertex="1" parent="1">
                    <mxGeometry x="1510" y="-215" width="160" height="60" as="geometry"/>
                </mxCell>
                <mxCell id="25" value="+&lt;br&gt;(update progress)" style="rounded=0;whiteSpace=wrap;html=1;" vertex="1" parent="1">
                    <mxGeometry x="1665" y="95" width="50" height="50" as="geometry"/>
                </mxCell>
                <mxCell id="26" value="select and update goals here&amp;nbsp;" style="rounded=0;whiteSpace=wrap;html=1;" vertex="1" parent="1">
                    <mxGeometry x="1920" y="-315" width="450" height="400" as="geometry"/>
                </mxCell>
                <mxCell id="27" value="goal popup" style="text;html=1;align=center;verticalAlign=middle;resizable=0;points=[];autosize=1;strokeColor=none;fillColor=none;" vertex="1" parent="1">
                    <mxGeometry x="2120" y="-380" width="80" height="30" as="geometry"/>
                </mxCell>
                <mxCell id="28" value="tractate ^ (dropdown)" style="rounded=1;whiteSpace=wrap;html=1;" vertex="1" parent="1">
                    <mxGeometry x="1980" y="-295" width="210" height="60" as="geometry"/>
                </mxCell>
                <mxCell id="29" value="Update goal" style="rounded=1;whiteSpace=wrap;html=1;" vertex="1" parent="1">
                    <mxGeometry x="1680" y="-215" width="170" height="60" as="geometry"/>
                </mxCell>
                <mxCell id="30" value="&lt;br&gt;&lt;br&gt;&lt;br&gt;&lt;br&gt;&lt;br&gt;&lt;br&gt;&lt;br&gt;&lt;br&gt;&lt;br&gt;&lt;br&gt;&lt;br&gt;&lt;br&gt;&lt;br&gt;&lt;br&gt;&lt;br&gt;&lt;br&gt;&lt;br&gt;on community click display all members&lt;br&gt;on select member, pop of memebers profile/progress" style="rounded=0;whiteSpace=wrap;html=1;" vertex="1" parent="1">
                    <mxGeometry x="1030" y="300" width="400" height="480" as="geometry"/>
                </mxCell>
                <mxCell id="31" value="select community dropdown" style="rounded=0;whiteSpace=wrap;html=1;" vertex="1" parent="1">
                    <mxGeometry x="1060" y="330" width="250" height="60" as="geometry"/>
                </mxCell>
                <mxCell id="32" value="" style="rounded=0;whiteSpace=wrap;html=1;" vertex="1" parent="1">
                    <mxGeometry x="1490" y="300" width="380" height="470" as="geometry"/>
                </mxCell>
                <mxCell id="33" value="community progress bar (only display after 50%)" style="rounded=0;whiteSpace=wrap;html=1;" vertex="1" parent="1">
                    <mxGeometry x="1095" y="580" width="270" height="60" as="geometry"/>
                </mxCell>
                <mxCell id="34" value="community page" style="text;html=1;strokeColor=none;fillColor=none;align=center;verticalAlign=middle;whiteSpace=wrap;rounded=0;" vertex="1" parent="1">
                    <mxGeometry x="1180" y="230" width="60" height="30" as="geometry"/>
                </mxCell>
                <mxCell id="35" value="member profile popup/tractate detals" style="text;html=1;strokeColor=none;fillColor=none;align=center;verticalAlign=middle;whiteSpace=wrap;rounded=0;" vertex="1" parent="1">
                    <mxGeometry x="1640" y="240" width="60" height="30" as="geometry"/>
                </mxCell>
                <mxCell id="36" value="event banner (plus see more for more events)" style="rounded=0;whiteSpace=wrap;html=1;" vertex="1" parent="1">
                    <mxGeometry x="1095" y="470" width="275" height="60" as="geometry"/>
                </mxCell>
            </root>
        </mxGraphModel>
    </diagram>
</mxfile>